<svg xmlns="http://www.w3.org/2000/svg" xmlns:xlink="http://www.w3.org/1999/xlink" viewBox="0 0 1500 1500">
  <g id="main"  class="g_to_interact" style="isolation: isolate">
    <path d="M656.51,921.07s-13.44-57-18.92-74.14C625,807.39,617,786.42,610,744.2l-.79-3.42c16.06.29,38.53.66,54.5,1,43.35,1,136.59-.31,167.69-.31,22.45,0,52.57-5.94,52.57-5.94-9.51,63.85-37.17,158.58-39.22,186.31C844.39,926,697.72,931.79,656.51,921.07Z"  fill-rule="evenodd"/>
  </g>
  <g id="top" class="g_to_interact" style="isolation: isolate">
    <path d="M686,670c41.24-1.65,82.42-2.44,120-2,29.79.35,58.79,1.3,88.39,2.91a2.5,2.5,0,0,1,2.36,2.35c.65,12.74,1.17,26.25.31,38.92-.21,3-.17,12,0,14.34.33,5.07-3.28,7.2-8.22,8.37-9.05,2.12-19.42,2.89-27.93,4.2-3.77.58-15.9,2.26-19.72,2.37-21.73.62-48.74,1.3-68.7,1.67-41,.76-79.05.21-104.23.18-41.49,0-69.7-2.22-71.13-6.21a113.61,113.61,0,0,1-2.6-31.39c.12-1.72-2.42-18.31-2.42-26.85,0-2.16,1.37-5.17,4.09-5.35C624.49,671.64,658.06,671.12,686,670Z"  fill-rule="evenodd"/>
  </g>
  <g id="bottom" class="g_to_interact" style="isolation: isolate">
    <path d="M640.18,908.38c3,0,9.9-.45,12.9-.45A58.61,58.61,0,0,0,660,922a888.86,888.86,0,0,0,92.76,4.78A870,870,0,0,0,843,922.1c.67-4.66,2.33-9.43,3-14.1,1,0,6.86,1.48,13.71,1.47,12,1.48,18.12,2.52,20.65,12.1,2.07,7.84-12.65,20.67-16.71,22.5-6.83,3.07-5.75,8.12-10.88,14.35-5.38,3.1-8.33,11.56-104,11.56,0,0-73.45,1-89.87-6.15-4.1-1.78-12.48-16.29-16.12-20.47a18.31,18.31,0,0,0-2.92-2.65,22.34,22.34,0,0,1-6.05-6.79,37.27,37.27,0,0,0-3.49-5.08c-1.49-1.81-3.3-10.52,1.52-15.23C635.84,909.69,639.45,908.36,640.18,908.38Z"  fill-rule="evenodd"/>
  </g>
  <g id="shadow_Image" data-name="shadow Image">
    <image id="shadow_Image-2" data-name="shadow Image" width="335" height="332" transform="translate(565 639)" xlink:href="empty_pot.png"/>
  </g>
</svg>
