<svg xmlns="http://www.w3.org/2000/svg" xmlns:xlink="http://www.w3.org/1999/xlink" viewBox="0 0 1500 1500">
 
 
  <g id="main"  class="g_to_interact" style="isolation: isolate">
    <path d="M658,922c-.27-20.35-11.51-40.82-17-58-12.63-39.54-23.91-78.78-31-121l2-2c16.07.28,32,.62,48,1,52.36,1.26,105.27,3.26,150,1,24.29-1.22,48-3.2,72-6-1.48,65.92-34,122.4-38,185C787.57,928.29,714.65,922.92,658,922Z"  fill-rule="evenodd"/>
  </g>
  <g id="top"  class="g_to_interact" style="isolation: isolate">
    <path d="M686,670c41.24-1.65,82.42-2.44,120-2,30.33.35,59.84,1.34,90,3a318.06,318.06,0,0,1,0,43c-.46,6.73-1.12,13.31-2,20l-39,6-65.25,1.21c-41,.75-86.57.79-111.75.79-20.53,0-63.92,6.48-78-3-6.74-4.54-10.64-49.64-7-59l5-5C627.6,672.83,656.47,671.18,686,670Z"  fill-rule="evenodd"/>
  </g>
  <g id="bottom"  class="g_to_interact" style="isolation: isolate">
    <path d="M639,908l11,1c5.13,2.61,7.11,8.35,10,13,56,1.68,128.3,6.23,184,0q1-7,2-14h3c8.45,2.39,20.92,1.06,26,7l5,6c-13.08,70.8-145.1,46.5-219,45-11.34-14.1-26.74-26.25-33-45C630.75,913.4,632.86,912,639,908Z"  fill-rule="evenodd"/>
  </g>

  <g id="shadow_Image" data-name="shadow Image">
    <image id="shadow_Image-2" data-name="shadow Image" width="335" height="332" transform="translate(565 639)" xlink:href="empty_pot.png"/>
  </g>
  
</svg>
