<svg id="Layer_1" data-name="Layer 1" xmlns="http://www.w3.org/2000/svg" viewBox="0 0 1735 1686">
  <g>
    <circle cx="93" cy="93" r="92.5" fill="#f15a24"/>
    <path d="M156,92a92,92,0,1,1-92,92,92.1,92.1,0,0,1,92-92m0-1a93,93,0,1,0,93,93,93,93,0,0,0-93-93Z" transform="translate(-63 -91)" fill="#fff"/>
  </g>
  <g>
    <circle cx="392" cy="93" r="92.5" fill="#f15a24"/>
    <path d="M455,92a92,92,0,1,1-92,92,92.1,92.1,0,0,1,92-92m0-1a93,93,0,1,0,93,93,93,93,0,0,0-93-93Z" transform="translate(-63 -91)" fill="#fff"/>
  </g>
  <g>
    <circle cx="704" cy="93" r="92.5" fill="#f15a24"/>
    <path d="M767,92a92,92,0,1,1-92,92,92.1,92.1,0,0,1,92-92m0-1a93,93,0,1,0,93,93,93,93,0,0,0-93-93Z" transform="translate(-63 -91)" fill="#fff"/>
  </g>
  <g>
    <circle cx="93" cy="393" r="92.5" fill="#f15a24"/>
    <path d="M156,392a92,92,0,1,1-92,92,92.1,92.1,0,0,1,92-92m0-1a93,93,0,1,0,93,93,93,93,0,0,0-93-93Z" transform="translate(-63 -91)" fill="#fff"/>
  </g>
  <g>
    <circle cx="392" cy="393" r="92.5" fill="#f15a24"/>
    <path d="M455,392a92,92,0,1,1-92,92,92.1,92.1,0,0,1,92-92m0-1a93,93,0,1,0,93,93,93,93,0,0,0-93-93Z" transform="translate(-63 -91)" fill="#fff"/>
  </g>
  <g>
    <circle cx="704" cy="393" r="92.5" fill="#f15a24"/>
    <path d="M767,392a92,92,0,1,1-92,92,92.1,92.1,0,0,1,92-92m0-1a93,93,0,1,0,93,93,93,93,0,0,0-93-93Z" transform="translate(-63 -91)" fill="#fff"/>
  </g>
  <g>
    <circle cx="93" cy="693" r="92.5" fill="#f15a24"/>
    <path d="M156,692a92,92,0,1,1-92,92,92.1,92.1,0,0,1,92-92m0-1a93,93,0,1,0,93,93,93,93,0,0,0-93-93Z" transform="translate(-63 -91)" fill="#fff"/>
  </g>
  <g>
    <circle cx="392" cy="693" r="92.5" fill="#f15a24"/>
    <path d="M455,692a92,92,0,1,1-92,92,92.1,92.1,0,0,1,92-92m0-1a93,93,0,1,0,93,93,93,93,0,0,0-93-93Z" transform="translate(-63 -91)" fill="#fff"/>
  </g>
  <g>
    <circle cx="704" cy="693" r="92.5" fill="#f15a24"/>
    <path d="M767,692a92,92,0,1,1-92,92,92.1,92.1,0,0,1,92-92m0-1a93,93,0,1,0,93,93,93,93,0,0,0-93-93Z" transform="translate(-63 -91)" fill="#fff"/>
  </g>
  <g>
    <circle cx="1016" cy="93" r="92.5" fill="#f15a24"/>
    <path d="M1079,92a92,92,0,1,1-92,92,92.1,92.1,0,0,1,92-92m0-1a93,93,0,1,0,93,93,93,93,0,0,0-93-93Z" transform="translate(-63 -91)" fill="#fff"/>
  </g>
  <g>
    <circle cx="1315" cy="93" r="92.5" fill="#f15a24"/>
    <path d="M1378,92a92,92,0,1,1-92,92,92.1,92.1,0,0,1,92-92m0-1a93,93,0,1,0,93,93,93,93,0,0,0-93-93Z" transform="translate(-63 -91)" fill="#fff"/>
  </g>
  <g>
    <circle cx="1627" cy="93" r="92.5" fill="#f15a24"/>
    <path d="M1690,92a92,92,0,1,1-92,92,92.1,92.1,0,0,1,92-92m0-1a93,93,0,1,0,93,93,93,93,0,0,0-93-93Z" transform="translate(-63 -91)" fill="#fff"/>
  </g>
  <g>
    <circle cx="1016" cy="393" r="92.5" fill="#f15a24"/>
    <path d="M1079,392a92,92,0,1,1-92,92,92.1,92.1,0,0,1,92-92m0-1a93,93,0,1,0,93,93,93,93,0,0,0-93-93Z" transform="translate(-63 -91)" fill="#fff"/>
  </g>
  <g>
    <circle cx="1315" cy="393" r="92.5" fill="#f15a24"/>
    <path d="M1378,392a92,92,0,1,1-92,92,92.1,92.1,0,0,1,92-92m0-1a93,93,0,1,0,93,93,93,93,0,0,0-93-93Z" transform="translate(-63 -91)" fill="#fff"/>
  </g>
  <g>
    <circle cx="1627" cy="393" r="92.5" fill="#f15a24"/>
    <path d="M1690,392a92,92,0,1,1-92,92,92.1,92.1,0,0,1,92-92m0-1a93,93,0,1,0,93,93,93,93,0,0,0-93-93Z" transform="translate(-63 -91)" fill="#fff"/>
  </g>
  <g>
    <circle cx="1016" cy="693" r="92.5" fill="#f15a24"/>
    <path d="M1079,692a92,92,0,1,1-92,92,92.1,92.1,0,0,1,92-92m0-1a93,93,0,1,0,93,93,93,93,0,0,0-93-93Z" transform="translate(-63 -91)" fill="#fff"/>
  </g>
  <g>
    <circle cx="1315" cy="693" r="92.5" fill="#f15a24"/>
    <path d="M1378,692a92,92,0,1,1-92,92,92.1,92.1,0,0,1,92-92m0-1a93,93,0,1,0,93,93,93,93,0,0,0-93-93Z" transform="translate(-63 -91)" fill="#fff"/>
  </g>
  <g>
    <circle cx="1627" cy="693" r="92.5" fill="#f15a24"/>
    <path d="M1690,692a92,92,0,1,1-92,92,92.1,92.1,0,0,1,92-92m0-1a93,93,0,1,0,93,93,93,93,0,0,0-93-93Z" transform="translate(-63 -91)" fill="#fff"/>
  </g>
  <g>
    <circle cx="117" cy="993" r="92.5" fill="#f15a24"/>
    <path d="M180,992a92,92,0,1,1-92,92,92.1,92.1,0,0,1,92-92m0-1a93,93,0,1,0,93,93,93,93,0,0,0-93-93Z" transform="translate(-63 -91)" fill="#fff"/>
  </g>
  <g>
    <circle cx="416" cy="993" r="92.5" fill="#f15a24"/>
    <path d="M479,992a92,92,0,1,1-92,92,92.1,92.1,0,0,1,92-92m0-1a93,93,0,1,0,93,93,93,93,0,0,0-93-93Z" transform="translate(-63 -91)" fill="#fff"/>
  </g>
  <g>
    <circle cx="728" cy="993" r="92.5" fill="#f15a24"/>
    <path d="M791,992a92,92,0,1,1-92,92,92.1,92.1,0,0,1,92-92m0-1a93,93,0,1,0,93,93,93,93,0,0,0-93-93Z" transform="translate(-63 -91)" fill="#fff"/>
  </g>
  <g>
    <circle cx="117" cy="1293" r="92.5" fill="#f15a24"/>
    <path d="M180,1292a92,92,0,1,1-92,92,92.1,92.1,0,0,1,92-92m0-1a93,93,0,1,0,93,93,93,93,0,0,0-93-93Z" transform="translate(-63 -91)" fill="#fff"/>
  </g>
  <g>
    <circle cx="416" cy="1293" r="92.5" fill="#f15a24"/>
    <path d="M479,1292a92,92,0,1,1-92,92,92.1,92.1,0,0,1,92-92m0-1a93,93,0,1,0,93,93,93,93,0,0,0-93-93Z" transform="translate(-63 -91)" fill="#fff"/>
  </g>
  <g>
    <circle cx="728" cy="1293" r="92.5" fill="#f15a24"/>
    <path d="M791,1292a92,92,0,1,1-92,92,92.1,92.1,0,0,1,92-92m0-1a93,93,0,1,0,93,93,93,93,0,0,0-93-93Z" transform="translate(-63 -91)" fill="#fff"/>
  </g>
  <g>
    <circle cx="117" cy="1593" r="92.5" fill="#f15a24"/>
    <path d="M180,1592a92,92,0,1,1-92,92,92.1,92.1,0,0,1,92-92m0-1a93,93,0,1,0,93,93,93,93,0,0,0-93-93Z" transform="translate(-63 -91)" fill="#fff"/>
  </g>
  <g>
    <circle cx="416" cy="1593" r="92.5" fill="#f15a24"/>
    <path d="M479,1592a92,92,0,1,1-92,92,92.1,92.1,0,0,1,92-92m0-1a93,93,0,1,0,93,93,93,93,0,0,0-93-93Z" transform="translate(-63 -91)" fill="#fff"/>
  </g>
  <g>
    <circle cx="728" cy="1593" r="92.5" fill="#f15a24"/>
    <path d="M791,1592a92,92,0,1,1-92,92,92.1,92.1,0,0,1,92-92m0-1a93,93,0,1,0,93,93,93,93,0,0,0-93-93Z" transform="translate(-63 -91)" fill="#fff"/>
  </g>
  <g>
    <circle cx="1031" cy="993" r="92.5" fill="#f15a24"/>
    <path d="M1094,992a92,92,0,1,1-92,92,92.1,92.1,0,0,1,92-92m0-1a93,93,0,1,0,93,93,93,93,0,0,0-93-93Z" transform="translate(-63 -91)" fill="#fff"/>
  </g>
  <g>
    <circle cx="1330" cy="993" r="92.5" fill="#f15a24"/>
    <path d="M1393,992a92,92,0,1,1-92,92,92.1,92.1,0,0,1,92-92m0-1a93,93,0,1,0,93,93,93,93,0,0,0-93-93Z" transform="translate(-63 -91)" fill="#fff"/>
  </g>
  <g>
    <circle cx="1642" cy="993" r="92.5" fill="#f15a24"/>
    <path d="M1705,992a92,92,0,1,1-92,92,92.1,92.1,0,0,1,92-92m0-1a93,93,0,1,0,93,93,93,93,0,0,0-93-93Z" transform="translate(-63 -91)" fill="#fff"/>
  </g>
  <g>
    <circle cx="1031" cy="1293" r="92.5" fill="#f15a24"/>
    <path d="M1094,1292a92,92,0,1,1-92,92,92.1,92.1,0,0,1,92-92m0-1a93,93,0,1,0,93,93,93,93,0,0,0-93-93Z" transform="translate(-63 -91)" fill="#fff"/>
  </g>
  <g>
    <circle cx="1330" cy="1293" r="92.5" fill="#f15a24"/>
    <path d="M1393,1292a92,92,0,1,1-92,92,92.1,92.1,0,0,1,92-92m0-1a93,93,0,1,0,93,93,93,93,0,0,0-93-93Z" transform="translate(-63 -91)" fill="#fff"/>
  </g>
  <g>
    <circle cx="1642" cy="1293" r="92.5" fill="#f15a24"/>
    <path d="M1705,1292a92,92,0,1,1-92,92,92.1,92.1,0,0,1,92-92m0-1a93,93,0,1,0,93,93,93,93,0,0,0-93-93Z" transform="translate(-63 -91)" fill="#fff"/>
  </g>
  <g>
    <circle cx="1031" cy="1593" r="92.5" fill="#f15a24"/>
    <path d="M1094,1592a92,92,0,1,1-92,92,92.1,92.1,0,0,1,92-92m0-1a93,93,0,1,0,93,93,93,93,0,0,0-93-93Z" transform="translate(-63 -91)" fill="#fff"/>
  </g>
  <g>
    <circle cx="1330" cy="1593" r="92.5" fill="#f15a24"/>
    <path d="M1393,1592a92,92,0,1,1-92,92,92.1,92.1,0,0,1,92-92m0-1a93,93,0,1,0,93,93,93,93,0,0,0-93-93Z" transform="translate(-63 -91)" fill="#fff"/>
  </g>
  <g>
    <circle cx="1642" cy="1593" r="92.5" fill="#f15a24"/>
    <path d="M1705,1592a92,92,0,1,1-92,92,92.1,92.1,0,0,1,92-92m0-1a93,93,0,1,0,93,93,93,93,0,0,0-93-93Z" transform="translate(-63 -91)" fill="#fff"/>
  </g>
</svg>
