<svg xmlns="http://www.w3.org/2000/svg" width="2990.346" height="3076.916" viewBox="0 0 2990.346 3076.916">
  <g id="Group_4" data-name="Group 4" transform="translate(448.027 672.693)">
    <path id="Path_1" data-name="Path 1" d="M421.949,157.194c-127.017-21.962-320.556,204.723-315.11,441.817,7.676,333.834,467.324,679.595,580.683,616.831,79.759-44.161,129.432-163.5,200.549-219.406,162.526-127.778,345.77-15.208,395.315-103.153,68.23-121.108-189.747-493.53-365.2-472.716-83.975,9.96-95.659,103.675-170.155,101.351C607.593,517.539,564.627,181.869,421.949,157.194Z" transform="matrix(-0.087, -0.996, 0.996, -0.087, -490.319, 723.605)" fill="#394935"/>
    <g id="Group_3" data-name="Group 3">
      <path id="Path_1-2" data-name="Path 1" d="M421.949,157.194c-127.017-21.962-320.556,204.723-315.11,441.817,7.676,333.834,467.324,679.595,580.683,616.831,79.759-44.161,129.432-163.5,200.549-219.406,162.526-127.778,345.77-15.208,395.315-103.153,68.23-121.108-189.747-493.53-365.2-472.716-83.975,9.96-95.659,103.675-170.155,101.351C607.593,517.539,564.627,181.869,421.949,157.194Z" transform="matrix(-0.087, -0.996, 0.996, -0.087, -310.319, 758.096)" fill="none" stroke="#707070" stroke-width="1"/>
    </g>
    <path id="Path_1-3" data-name="Path 1" d="M743.891,1042.037c70.266-45.876,101.73-347.824,30.087-556.5C673.1,191.72,341.429,120.211,302.653,234.619c-27.282,80.5-17.584,212.546-37.1,299.068C220.939,731.429,96.058,725.463,96.7,829.443c.879,143.189,238.865,342.421,321.062,233.428,39.343-52.165,17.984-141.778,56.128-178.1C545.794,816.3,664.957,1093.56,743.891,1042.037Z" transform="matrix(0.342, 0.94, -0.94, 0.342, 2402.634, 754.604)" fill="#e3d5ca"/>
    <path id="Path_1-4" data-name="Path 1" d="M421.949,157.194c-127.017-21.962-320.556,204.723-315.11,441.817,7.676,333.834,467.324,679.595,580.683,616.831,79.759-44.161,129.432-163.5,200.549-219.406,162.526-127.778,345.77-15.208,395.315-103.153,68.23-121.108-189.747-493.53-365.2-472.716-83.975,9.96-95.659,103.675-170.155,101.351C607.593,517.539,564.627,181.869,421.949,157.194Z" transform="matrix(-0.485, -0.875, 0.875, -0.485, 1523.457, 2572.347)" fill="none" stroke="#137133" stroke-width="1"/>
  </g>
</svg>
